<svg width="24px" height="24px" viewBox="0 0 24 24" version="1.1" xmlns="http://www.w3.org/2000/svg" xmlns:xlink="http://www.w3.org/1999/xlink">
    <g id="Welcome" stroke="none" stroke-width="1" fill="none" fill-rule="evenodd">
        <g id="Tablet-Portrait" transform="translate(-696.000000, -973.000000)" fill="#000000" fill-rule="nonzero">
            <g id="input" transform="translate(117.000000, 946.000000)">
                <g id="happiness" transform="translate(579.000000, 27.000000)">
                    <path d="M12,0 C5.38320788,0 0,5.38320788 0,12 C0,18.6167921 5.38320788,24 12,24 C18.6167921,24 24,18.6167921 24,12 C24,5.38320788 18.6168732,0 12,0 Z M12,22.7026852 C9.0602846,22.7026852 6.39373505,21.5111015 4.45757375,19.5858863 C3.68437411,18.8170651 3.02801389,17.9309991 2.51695293,16.9572021 C1.73856403,15.4742902 1.29731483,13.7877809 1.29731483,12 C1.29731483,6.09851484 6.09851484,1.29731483 12,1.29731483 C14.7992,1.29731483 17.3503696,2.37797808 19.2595305,4.1434614 C20.2493817,5.05871701 21.0667712,6.157867 21.6561575,7.38642414 C22.3267071,8.78419979 22.7026852,10.3490047 22.7026852,12 C22.7026852,17.9014852 17.9014852,22.7026852 12,22.7026852 Z" id="Shape"></path>
                    <circle id="Oval" cx="8.5" cy="9.5" r="1.5"></circle>
                    <circle id="Oval" cx="15.5" cy="9.5" r="1.5"></circle>
                    <path d="M11.9780396,18 C14.3800261,18 16.6819881,16.7534697 18,14.6838199 L16.9571526,14 C15.7468476,15.9005059 13.5330376,16.9611198 11.3162789,16.7015769 C9.58877924,16.4994389 7.99125723,15.489458 7.04276975,14 L6,14.6838199 C7.14768304,16.4862098 9.0819053,17.7083292 11.1739631,17.9532256 C11.4425318,17.9846448 11.7107125,18 11.9780396,18 Z" id="Path"></path>
                </g>
            </g>
        </g>
    </g>
</svg>