<svg width="30px" height="24px" viewBox="0 0 30 24" version="1.1" xmlns="http://www.w3.org/2000/svg" xmlns:xlink="http://www.w3.org/1999/xlink">
    <g id="Welcome" stroke="none" stroke-width="1" fill="none" fill-rule="evenodd">
        <g id="Tablet-Portrait" transform="translate(-652.000000, -973.000000)" fill="#000000" fill-rule="nonzero">
            <g id="input" transform="translate(117.000000, 946.000000)">
                <g id="picture" transform="translate(535.000000, 27.000000)">
                    <path d="M29.4827586,0 L0.517241379,0 C0.231724138,0 0,0.233217391 0,0.52173913 L0,23.4782609 C0,23.7667826 0.231724138,24 0.517241379,24 L29.4827586,24 C29.7682759,24 30,23.7667826 30,23.4782609 L30,0.52173913 C30,0.233217391 29.7682759,0 29.4827586,0 Z M28.9655172,22.9565217 L1.03448276,22.9565217 L1.03448276,1.04347826 L28.9655172,1.04347826 L28.9655172,22.9565217 Z" id="Shape"></path>
                    <path d="M9,12 C10.6543365,12 12,10.6543365 12,9.0005387 C12,7.34566349 10.6543365,6 9,6 C7.34566349,6 6,7.34566349 6,9 C6,10.6543365 7.34566349,12 9,12 Z M9,7.07739271 C10.0601544,7.07739271 10.9226073,7.94038427 10.9226073,9 C10.9226073,10.0596157 10.0601544,10.9226073 9,10.9226073 C7.93984557,10.9226073 7.07739271,10.0601544 7.07739271,9.0005387 C7.07739271,7.94092297 7.93984557,7.07739271 9,7.07739271 Z" id="Shape"></path>
                    <path d="M3.51090462,21 C3.63039308,21 3.75090281,20.9572161 3.84792335,20.8700829 L12.1779031,13.3766324 L17.4384591,18.7512344 C17.6381172,18.9552407 17.9608382,18.9552407 18.1604963,18.7512344 C18.3601543,18.547228 18.3601543,18.2174786 18.1604963,18.0134723 L15.7058765,15.5053943 L20.3940113,10.2596658 L26.1442658,15.6457464 C26.3520941,15.8403612 26.6753257,15.825752 26.8657923,15.6133976 C27.056259,15.4010432 27.0424718,15.070772 26.834133,14.8761573 L20.7065196,9.13684828 C20.6064353,9.04345407 20.4731597,8.99701784 20.3388628,9.00014837 C20.2035447,9.00640943 20.0758861,9.06745481 19.9844825,9.16971886 L14.9833287,14.7665887 L12.5613895,12.291903 C12.3704123,12.0972882 12.0650529,12.0873749 11.8628416,12.2689457 L3.17337525,20.0864064 C2.96146195,20.2768471 2.94103657,20.6065965 3.12741815,20.8231249 C3.22852377,20.9405199 3.36945887,21 3.51090462,21 Z" id="Shape"></path>
                </g>
            </g>
        </g>
    </g>
</svg>