<svg width="24px" height="24px" viewBox="0 0 24 24" version="1.1" xmlns="http://www.w3.org/2000/svg" xmlns:xlink="http://www.w3.org/1999/xlink">
    <g id="Welcome" stroke="none" stroke-width="1" fill="none" fill-rule="evenodd">
        <g id="Tablet-Portrait" transform="translate(-720.000000, -27.000000)" fill="#000000" fill-rule="nonzero">
            <g id="name" transform="translate(117.000000, 0.000000)">
                <g id="information" transform="translate(603.000000, 27.000000)">
                    <path d="M11.1145038,7.09774436 C11.1603053,7.18796992 11.2061069,7.27819549 11.2519084,7.34586466 C11.2977099,7.41353383 11.3664122,7.48120301 11.4122137,7.54887218 C11.480916,7.61654135 11.5496183,7.68421053 11.6412214,7.7518797 C11.7099237,7.79699248 11.8015267,7.86466165 11.9160305,7.88721805 C12.0076336,7.93233083 12.0992366,7.95488722 12.2137405,7.97744361 C12.3282443,8 12.4198473,8 12.5114504,8 C12.6030534,8 12.7175573,8 12.8091603,7.97744361 C12.9007634,7.95488722 12.9923664,7.93233083 13.0610687,7.88721805 L13.0839695,7.88721805 C13.1755725,7.84210526 13.2671756,7.79699248 13.3587786,7.72932331 C13.4274809,7.68421053 13.4961832,7.61654135 13.5648855,7.54887218 L13.5877863,7.52631579 C13.6564885,7.45864662 13.7022901,7.39097744 13.7480916,7.32330827 C13.7938931,7.2556391 13.8396947,7.18796992 13.8625954,7.09774436 C13.8625954,7.07518797 13.8625954,7.07518797 13.8854962,7.05263158 C13.9312977,6.96240602 13.9541985,6.84962406 13.9770992,6.7593985 C14,6.66917293 14,6.55639098 14,6.46616541 C14,6.37593985 14,6.26315789 13.9770992,6.17293233 C13.9541985,6.08270677 13.9312977,5.9924812 13.8854962,5.87969925 C13.8167939,5.72180451 13.7251908,5.58646617 13.610687,5.47368421 C13.5877863,5.45112782 13.5877863,5.45112782 13.5648855,5.42857143 C13.4961832,5.36090226 13.4274809,5.31578947 13.3358779,5.2481203 C13.2442748,5.20300752 13.1755725,5.15789474 13.0839695,5.11278195 C12.9923664,5.06766917 12.9007634,5.04511278 12.8091603,5.02255639 C12.6946565,5 12.6030534,5 12.5114504,5 C12.4198473,5 12.3053435,5 12.2137405,5.02255639 C12.1221374,5.04511278 12.0305344,5.06766917 11.9389313,5.11278195 L11.9160305,5.11278195 C11.8244275,5.15789474 11.7328244,5.20300752 11.6641221,5.2481203 C11.5725191,5.31578947 11.5038168,5.36090226 11.4351145,5.42857143 C11.3664122,5.4962406 11.2977099,5.56390977 11.2519084,5.63157895 C11.2061069,5.69924812 11.1603053,5.78947368 11.1145038,5.87969925 C11.0687023,5.96992481 11.0458015,6.06015038 11.0229008,6.15037594 C11,6.26315789 11,6.35338346 11,6.44360902 C11,6.53383459 11,6.64661654 11.0229008,6.73684211 C11.0458015,6.91729323 11.0916031,7.0075188 11.1145038,7.09774436 Z" id="Shape"></path>
                    <path d="M14.368932,15.7354497 L13.8106796,15.7354497 L13.8106796,10.5502646 C13.8106796,10.2539683 13.5436893,10 13.1796117,10 L10.631068,10 C10.2912621,10 10,10.2328042 10,10.5502646 L10,11.6931217 C10,11.989418 10.2669903,12.2433862 10.631068,12.2433862 L11.1407767,12.2433862 L11.1407767,15.7566138 L10.631068,15.7566138 C10.2912621,15.7566138 10,15.989418 10,16.3068783 L10,17.4497354 C10,17.7460317 10.2669903,18 10.631068,18 L14.368932,18 C14.7087379,18 15,17.7671958 15,17.4497354 L15,16.3068783 C15,15.989418 14.7087379,15.7354497 14.368932,15.7354497 Z" id="Shape"></path>
                    <path d="M12,0 C5.37477148,0 0,5.37477148 0,12 C0,18.6252285 5.37477148,24 12,24 C18.6252285,24 24,18.6252285 24,12 C24,5.37477148 18.6252285,0 12,0 Z M12,22.4204753 C6.25228519,22.4204753 1.57952468,17.7477148 1.57952468,12 C1.57952468,6.25228519 6.25228519,1.57952468 12,1.57952468 C17.7477148,1.57952468 22.4204753,6.25228519 22.4204753,12 C22.4204753,17.7477148 17.7477148,22.4204753 12,22.4204753 Z" id="Shape"></path>
                </g>
            </g>
        </g>
    </g>
</svg>