<svg width="24px" height="24px" viewBox="0 0 24 24" version="1.1" xmlns="http://www.w3.org/2000/svg" xmlns:xlink="http://www.w3.org/1999/xlink">
    <g id="Welcome" stroke="none" stroke-width="1" fill="none" fill-rule="evenodd">
        <g id="Tablet-Portrait" transform="translate(-46.000000, -27.000000)" fill="#000000">
            <g id="navBar">
                <g id="Settings" transform="translate(46.000000, 27.000000)">
                    <path d="M12,7 C9.23857625,7 7,9.23857625 7,12 C7,14.7614237 9.23857625,17 12,17 C14.7614237,17 17,14.7614237 17,12 C17,9.23857625 14.7614237,7 12,7 Z M12,15 C10.3431458,15 9,13.6568542 9,12 C9,10.3431458 10.3431458,9 12,9 C13.6568542,9 15,10.3431458 15,12 C15,13.6568542 13.6568542,15 12,15 Z" id="Shape"></path>
                    <path d="M22.3636279,8.72727273 L21.8181735,8.72727273 C21.6696052,8.2583539 21.4873114,7.80079627 21.2727192,7.35818182 L21.6490827,6.98181818 C22.2871626,6.34294353 22.2871626,5.30796556 21.6490827,4.66909091 L19.3363563,2.35636364 C18.6974819,1.71828354 17.6625043,1.71828354 17.0236299,2.35636364 L16.6363573,2.72727273 C16.1937354,2.51269785 15.7361792,2.33040448 15.2672669,2.18181818 L15.2672669,1.63636364 C15.2672669,0.732624955 14.5346423,0 13.6309039,0 L10.3581779,0 C9.45443955,0 8.72181487,0.732624955 8.72181487,1.63636364 L8.72181487,2.18181818 C8.25290264,2.33040448 7.79534646,2.51269785 7.35272448,2.72727273 L6.97636099,2.35090909 C6.33748658,1.71282899 5.302509,1.71282899 4.66363459,2.35090909 L2.3509082,4.66363636 C1.71282834,5.30251101 1.71282834,6.33748899 2.3509082,6.97636364 L2.72727169,7.35272727 C2.51267946,7.79534173 2.33038565,8.25289936 2.18181735,8.72181818 L1.63636302,8.72181818 C0.732624677,8.72181818 0,9.45444314 0,10.3581818 L0,13.6309091 C-3.10054894e-14,14.5346478 0.732624677,15.2672727 1.63636302,15.2672727 L2.18181735,15.2672727 C2.33038565,15.7361916 2.51267946,16.1937492 2.72727169,16.6363636 L2.3509082,17.0127273 C1.71282834,17.6516019 1.71282834,18.6865799 2.3509082,19.3254545 L4.66363459,21.6381818 C5.302509,22.2762619 6.33748658,22.2762619 6.97636099,21.6381818 L7.36363357,21.2727273 C7.80625555,21.4873022 8.26381172,21.6695955 8.73272396,21.8181818 L8.73272396,22.3636364 C8.73272396,23.267375 9.46534864,24 10.369087,24 L13.641813,24 C14.5455513,24 15.278176,23.267375 15.278176,22.3636364 L15.278176,21.8181818 C15.7470883,21.6695955 16.2046444,21.4873022 16.6472664,21.2727273 L17.0236299,21.6490909 C17.6625043,22.287171 18.6974819,22.287171 19.3363563,21.6490909 L21.6490827,19.3363636 C22.2871626,18.697489 22.2871626,17.662511 21.6490827,17.0236364 L21.2727192,16.6472727 C21.4873114,16.2046583 21.6696052,15.7471006 21.8181735,15.2781818 L22.3636279,15.2781818 C23.2673662,15.2781818 23.9999909,14.5455569 23.9999909,13.6418182 L23.9999909,10.3690909 C24.0014407,9.93415599 23.8296789,9.51653784 23.522644,9.2084794 C23.2156091,8.90042096 22.7985651,8.72727031 22.3636279,8.72727273 L22.3636279,8.72727273 Z M22.3636279,13.6363636 L20.5690831,13.6363636 C20.3479148,14.8086549 19.8874197,15.9227563 19.2163563,16.9090909 L20.4818104,18.1745455 L18.169084,20.4872727 L16.90363,19.2218182 C15.9173704,19.8930201 14.8032396,20.3535277 13.6309039,20.5745455 L13.6309039,22.3636364 L10.3581779,22.3636364 L10.3581779,20.5690909 C9.18584223,20.3480732 8.07171144,19.8875656 7.08545186,19.2163636 L5.81999779,20.4818182 L3.5072714,18.1690909 L4.77272546,16.9036364 C4.10166212,15.9173018 3.64116704,14.8032004 3.4199987,13.6309091 L1.63636302,13.6309091 L1.63636302,10.3581818 L3.43090779,10.3581818 C3.65207613,9.18589055 4.1125712,8.07178914 4.78363455,7.08545455 L3.51818048,5.82 L5.83090688,3.50727273 L7.09636094,4.77272727 C8.08269517,4.10166367 9.19679615,3.64116842 10.369087,3.42 L10.369087,1.63636364 L13.641813,1.63636364 L13.641813,3.43090909 C14.8141038,3.65207752 15.9282048,4.11257276 16.914539,4.78363636 L18.1799931,3.51818182 L20.4927195,5.83090909 L19.2163563,7.09090909 C19.8874197,8.07724369 20.3479148,9.19134509 20.5690831,10.3636364 L22.3636279,10.3636364 L22.3636279,13.6363636 Z" id="Shape"></path>
                </g>
            </g>
        </g>
    </g>
</svg>